<mxfile host="65bd71144e">
    <diagram id="m9pYxVZ97uWosfUsufhU" name="Page-1">
        <mxGraphModel dx="1054" dy="628" grid="1" gridSize="10" guides="1" tooltips="1" connect="1" arrows="1" fold="1" page="1" pageScale="1" pageWidth="850" pageHeight="1100" background="#ffffff" math="0" shadow="0">
            <root>
                <mxCell id="0"/>
                <mxCell id="1" parent="0"/>
                <mxCell id="11" value="" style="edgeStyle=none;html=1;strokeColor=#0000FF;" edge="1" parent="1" source="9" target="10">
                    <mxGeometry relative="1" as="geometry"/>
                </mxCell>
                <mxCell id="13" value="" style="edgeStyle=none;html=1;strokeColor=#0000FF;" edge="1" parent="1" source="9" target="12">
                    <mxGeometry relative="1" as="geometry"/>
                </mxCell>
                <mxCell id="15" value="" style="edgeStyle=none;html=1;strokeColor=#0000FF;" edge="1" parent="1" source="9" target="14">
                    <mxGeometry relative="1" as="geometry"/>
                </mxCell>
                <mxCell id="17" value="" style="edgeStyle=none;html=1;strokeColor=#0000FF;" edge="1" parent="1" source="9" target="16">
                    <mxGeometry relative="1" as="geometry"/>
                </mxCell>
                <mxCell id="9" value="Software&lt;br&gt;Quality" style="html=1;dashed=0;whitespace=wrap;fillColor=#60a917;fontColor=#ffffff;strokeColor=#2D7600;" vertex="1" parent="1">
                    <mxGeometry x="270" y="440" width="100" height="50" as="geometry"/>
                </mxCell>
                <mxCell id="10" value="End User's&lt;br&gt;Experience" style="ellipse;whiteSpace=wrap;html=1;dashed=0;fillColor=#60a917;fontColor=#ffffff;strokeColor=#2D7600;" vertex="1" parent="1">
                    <mxGeometry x="260" y="305" width="120" height="60" as="geometry"/>
                </mxCell>
                <mxCell id="12" value="Development Team's&lt;br&gt;Perspective" style="ellipse;whiteSpace=wrap;html=1;dashed=0;fillColor=#60a917;fontColor=#ffffff;strokeColor=#2D7600;" vertex="1" parent="1">
                    <mxGeometry x="440" y="435" width="120" height="60" as="geometry"/>
                </mxCell>
                <mxCell id="14" value="Market Study" style="ellipse;whiteSpace=wrap;html=1;dashed=0;fillColor=#60a917;fontColor=#ffffff;strokeColor=#2D7600;" vertex="1" parent="1">
                    <mxGeometry x="260" y="565" width="120" height="60" as="geometry"/>
                </mxCell>
                <mxCell id="16" value="Business Requirements" style="ellipse;whiteSpace=wrap;html=1;dashed=0;fillColor=#60a917;fontColor=#ffffff;strokeColor=#2D7600;" vertex="1" parent="1">
                    <mxGeometry x="80" y="435" width="120" height="60" as="geometry"/>
                </mxCell>
            </root>
        </mxGraphModel>
    </diagram>
</mxfile>